<svg xmlns="http://www.w3.org/2000/svg" width="1365.999" height="766.047" viewBox="0 0 1365.999 766.047"><defs><style>.a{fill:#485cc7;}</style></defs><path class="a" d="M267,766.047V0H1633V396.707c-16.611-6.338-33.6-12.387-50.494-17.979-16.967-5.616-34.3-10.921-51.5-15.768-17.3-4.873-34.95-9.414-52.457-13.5-17.609-4.108-35.559-7.868-53.352-11.173-17.9-3.325-36.13-6.283-54.188-8.79-18.174-2.523-36.668-4.66-54.967-6.35-18.424-1.7-37.16-3-55.687-3.852-18.659-.86-37.618-1.3-56.35-1.3-23.447,0-47.16.683-70.479,2.029-23.117,1.335-46.47,3.358-69.412,6.014-22.753,2.634-45.71,5.96-68.232,9.887-22.35,3.9-44.872,8.488-66.941,13.648-21.909,5.122-43.96,10.942-65.538,17.3-21.435,6.313-42.976,13.323-64.024,20.835-20.924,7.468-41.918,15.63-62.4,24.26-20.373,8.585-40.782,17.863-60.659,27.575-19.786,9.667-39.573,20.022-58.81,30.777-19.163,10.713-38.289,22.108-56.849,33.868-18.5,11.723-36.931,24.121-54.776,36.847-17.8,12.7-35.5,26.057-52.592,39.714-17.067,13.634-33.989,27.923-50.3,42.47s-32.405,29.714-47.888,45.114-30.746,31.43-45.368,47.646S280.728,749.05,267,766.045Z" transform="translate(-267 0)"/></svg>